<svg width="71" height="71" viewBox="0 0 71 71" fill="none" xmlns="http://www.w3.org/2000/svg">
<path d="M35.5 71C55.1061 71 71 55.1061 71 35.5C71 15.8939 55.1061 0 35.5 0C15.8939 0 0 15.8939 0 35.5C0 55.1061 15.8939 71 35.5 71Z" fill="#FFF3DE"/>
<path d="M18.6525 39.7995L22.94 52.9141C23.2445 53.846 24.3921 54.1791 25.1483 53.5546L37.9533 42.9842C37.9533 42.9842 24.3462 37.6766 24.3462 37.9659C24.3462 38.2556 18.6525 39.7995 18.6525 39.7995Z" fill="#B36A4B"/>
<path d="M52.4366 14.5945C44.0745 17.9019 17.0832 28.9623 6.86725 33.1533C5.51864 33.7066 5.59941 35.6416 6.98823 36.0843L18.6524 39.7999L22.9263 52.8728C23.0982 53.3984 23.5323 53.7375 24.0166 53.8286C24.4098 53.9026 24.9894 43.2419 24.9894 43.2419C24.9894 43.2419 37.2514 52.3355 43.0675 56.6301C44.5005 57.6879 46.5468 56.8923 46.886 55.1437C48.6185 46.2141 52.9508 23.8867 54.4318 16.2537C54.6549 15.1058 53.524 14.1643 52.4366 14.5945Z" fill="#D47E59"/>
<path d="M24.0167 53.8282C24.4099 53.9022 24.9896 43.2415 24.9896 43.2415L45.1343 24.3197C45.2706 24.1916 45.1076 23.976 44.9475 24.0721L18.6525 39.7999L22.9264 52.8728C23.0983 53.3984 23.5324 53.7371 24.0167 53.8282Z" fill="#8C543B"/>
</svg>
