<svg width="341" height="218" viewBox="0 0 341 218" fill="none" xmlns="http://www.w3.org/2000/svg">
<g filter="url(#filter0_d_26_8)">
<path d="M0 15.2655C0 15.2655 38.8935 -19.0819 43.6284 15.2655C48.3633 49.6129 61.215 -2.15706 87.595 15.2655C113.975 32.6881 133.591 -6.63716 135.958 15.2655C138.326 37.1682 158.28 31.6925 182.969 15.2655C207.658 -1.1615 214.508 33.7251 225.244 15.2655C239.841 -9.83145 268.873 42.2351 274.622 15.2655C280.372 -11.7041 324 15.2655 324 15.2655V196.5H0V15.2655Z" fill="#FFF3DE"/>
<path d="M109.45 72.96C109.1 72.82 108.739 72.6683 108.365 72.505C108.015 72.3417 107.677 72.0967 107.35 71.77C107.047 71.4667 106.779 71.035 106.545 70.475C106.312 69.7983 106.149 69.1333 106.055 68.48C105.985 67.8267 105.962 67.0683 105.985 66.205C105.985 64.9917 106.067 63.9417 106.23 63.055C106.417 62.145 106.697 61.2233 107.07 60.29C107.117 60.22 107.199 60.0217 107.315 59.695C107.455 59.345 107.607 58.9717 107.77 58.575C107.957 58.1783 108.097 57.875 108.19 57.665C108.377 57.2683 108.657 56.7433 109.03 56.09C109.427 55.4133 109.847 54.76 110.29 54.13C110.967 53.1267 111.527 52.3333 111.97 51.75C112.414 51.1667 112.834 50.6767 113.23 50.28C113.627 49.8833 114.07 49.51 114.56 49.16C115.074 48.7867 115.727 48.3317 116.52 47.795C117.034 47.4217 117.594 47.2233 118.2 47.2C118.83 47.1767 119.414 47.3167 119.95 47.62C120.487 47.9 120.884 48.32 121.14 48.88C121.397 49.37 121.525 49.965 121.525 50.665C121.525 51.3417 121.42 52.065 121.21 52.835C121 53.5817 120.709 54.2933 120.335 54.97C119.962 55.6467 119.53 56.2067 119.04 56.65C118.737 56.93 118.457 57.035 118.2 56.965C117.967 56.895 117.687 56.7083 117.36 56.405C117.15 56.0083 117.034 55.775 117.01 55.705C117.01 55.635 117.057 55.5883 117.15 55.565C117.29 55.4017 117.477 55.1217 117.71 54.725C117.944 54.3283 118.177 53.9083 118.41 53.465C118.644 52.9983 118.807 52.625 118.9 52.345C119.087 51.365 119.215 50.6767 119.285 50.28C119.355 49.86 119.285 49.545 119.075 49.335C118.982 49.2417 118.842 49.2067 118.655 49.23C118.492 49.2533 118.212 49.37 117.815 49.58C117.279 49.8133 116.579 50.3383 115.715 51.155C114.852 51.9483 114.059 52.835 113.335 53.815C112.402 55.0517 111.62 56.1483 110.99 57.105C110.36 58.0617 109.882 59.0417 109.555 60.045C109.509 60.1383 109.427 60.3133 109.31 60.57C109.217 60.8267 109.17 60.955 109.17 60.955C109.194 61.0483 109.159 61.2817 109.065 61.655C108.972 62.005 108.867 62.3083 108.75 62.565C108.494 63.6383 108.342 64.7583 108.295 65.925C108.249 67.0683 108.307 68.0833 108.47 68.97C108.657 69.8567 108.925 70.475 109.275 70.825C109.579 71.035 109.987 71.105 110.5 71.035C111.037 70.965 111.644 70.8017 112.32 70.545C112.997 70.2883 113.685 70.0083 114.385 69.705C114.945 69.4717 115.459 69.215 115.925 68.935C116.392 68.655 116.742 68.41 116.975 68.2C117.162 68.06 117.395 67.92 117.675 67.78C117.979 67.6167 118.235 67.535 118.445 67.535C118.772 67.4183 118.959 67.3717 119.005 67.395C119.052 67.4183 119.075 67.5233 119.075 67.71C119.075 68.0367 118.889 68.3983 118.515 68.795C118.165 69.1917 117.71 69.5533 117.15 69.88C116.964 70.0667 116.719 70.265 116.415 70.475C116.112 70.685 115.797 70.8483 115.47 70.965C114.98 71.3383 114.374 71.7 113.65 72.05C112.927 72.4 112.192 72.6683 111.445 72.855C110.722 73.0417 110.057 73.0767 109.45 72.96ZM122.634 69.775C122.424 69.6117 122.273 69.4483 122.179 69.285C122.109 69.1217 122.109 68.8067 122.179 68.34C122.249 67.6867 122.343 67.115 122.459 66.625C122.576 66.1117 122.716 65.5283 122.879 64.875C122.926 64.595 123.054 64.1167 123.264 63.44C123.498 62.7633 123.778 62.0283 124.104 61.235C124.431 60.4417 124.758 59.695 125.084 58.995C125.411 58.2717 125.691 57.735 125.924 57.385C126.111 57.245 126.333 57.1867 126.589 57.21C126.869 57.2333 127.103 57.3383 127.289 57.525C127.546 57.735 127.581 58.1083 127.394 58.645C127.231 59.1583 126.881 59.975 126.344 61.095C126.064 61.725 125.854 62.2033 125.714 62.53C125.574 62.8333 125.516 63.02 125.539 63.09C125.563 63.1367 125.668 63.1017 125.854 62.985C125.994 62.7283 126.251 62.4367 126.624 62.11C126.998 61.76 127.394 61.4217 127.814 61.095C128.234 60.7683 128.631 60.4767 129.004 60.22C129.378 59.9633 129.634 59.8 129.774 59.73C129.961 59.6133 130.171 59.52 130.404 59.45C130.661 59.3567 130.836 59.2867 130.929 59.24C131.466 58.9833 132.014 58.89 132.574 58.96C133.134 59.03 133.484 59.24 133.624 59.59C133.648 59.7767 133.718 59.9167 133.834 60.01C133.974 60.1033 134.044 60.15 134.044 60.15C134.138 60.15 134.184 60.185 134.184 60.255C134.208 60.325 134.219 60.36 134.219 60.36C134.219 60.5233 134.091 60.6283 133.834 60.675C133.601 60.6983 133.298 60.7217 132.924 60.745C132.621 60.7683 132.353 60.8267 132.119 60.92C131.886 61.0133 131.606 61.13 131.279 61.27C130.393 61.7833 129.541 62.285 128.724 62.775C127.931 63.265 127.161 63.9183 126.414 64.735C126.251 64.9217 126.088 65.1433 125.924 65.4C125.761 65.6567 125.586 65.9367 125.399 66.24C125.283 66.3567 125.166 66.6133 125.049 67.01C124.933 67.4067 124.828 67.7917 124.734 68.165C124.664 68.515 124.629 68.725 124.629 68.795C124.629 68.795 124.594 68.9117 124.524 69.145C124.454 69.355 124.338 69.565 124.174 69.775C123.894 70.1483 123.661 70.335 123.474 70.335C123.288 70.335 123.008 70.1483 122.634 69.775ZM140.742 69.775C140.252 70.195 139.68 70.44 139.027 70.51C138.397 70.58 137.778 70.4867 137.172 70.23C136.565 69.95 136.063 69.53 135.667 68.97C135.27 68.4567 135.013 67.8733 134.897 67.22C134.78 66.5433 134.768 65.6683 134.862 64.595C134.932 63.685 135.223 62.775 135.737 61.865C136.25 60.9317 136.868 60.1033 137.592 59.38C138.338 58.6567 139.073 58.155 139.797 57.875C140.147 57.6417 140.438 57.5367 140.672 57.56C140.928 57.56 141.313 57.5833 141.827 57.63C142.363 57.7 142.76 57.805 143.017 57.945C143.297 58.085 143.518 58.2717 143.682 58.505C144.032 58.855 144.265 59.205 144.382 59.555C144.498 59.8817 144.557 60.2083 144.557 60.535C144.463 61.0483 144.113 61.6783 143.507 62.425C142.923 63.1483 142.153 63.7433 141.197 64.21C140.683 64.3733 140.123 64.4433 139.517 64.42C138.91 64.3967 138.408 64.245 138.012 63.965C137.568 63.7783 137.277 63.8133 137.137 64.07C136.997 64.3033 136.868 64.8867 136.752 65.82C136.658 66.7067 136.728 67.36 136.962 67.78C137.195 68.1767 137.51 68.41 137.907 68.48C138.373 68.5733 138.735 68.6433 138.992 68.69C139.272 68.7133 139.61 68.6083 140.007 68.375C140.38 68.1417 140.613 68.0133 140.707 67.99C140.8 67.9433 140.87 67.8967 140.917 67.85C140.987 67.78 141.138 67.6283 141.372 67.395C141.535 67.2317 141.663 67.115 141.757 67.045C141.85 66.9517 141.955 66.905 142.072 66.905C142.188 66.905 142.293 66.9633 142.387 67.08C142.48 67.1733 142.573 67.2433 142.667 67.29C142.9 67.29 142.947 67.43 142.807 67.71C142.69 67.99 142.445 68.3283 142.072 68.725C141.698 69.0983 141.255 69.4483 140.742 69.775ZM140.707 62.355C140.963 62.2383 141.232 62.075 141.512 61.865C141.792 61.6317 142.025 61.3867 142.212 61.13C142.422 60.85 142.527 60.6167 142.527 60.43C142.527 60.1033 142.375 59.835 142.072 59.625C141.768 59.3917 141.313 59.3567 140.707 59.52C140.45 59.59 140.158 59.765 139.832 60.045C139.505 60.3017 139.19 60.5933 138.887 60.92C138.607 61.2467 138.373 61.5383 138.187 61.795C138.023 62.0517 137.965 62.2033 138.012 62.25C138.082 62.3667 138.28 62.46 138.607 62.53C138.933 62.5767 139.295 62.5883 139.692 62.565C140.112 62.5417 140.45 62.4717 140.707 62.355ZM148.938 69.985C148.752 70.0317 148.507 70.055 148.203 70.055C147.9 70.0317 147.632 69.9967 147.398 69.95C147.188 69.88 147.083 69.81 147.083 69.74C147.083 69.6233 147.025 69.565 146.908 69.565C146.908 69.565 146.85 69.5183 146.733 69.425C146.64 69.3317 146.488 69.2383 146.278 69.145C146.068 68.8183 145.963 68.4683 145.963 68.095C145.963 67.6983 146.068 67.08 146.278 66.24C146.348 65.6567 146.57 64.98 146.943 64.21C147.34 63.4167 147.818 62.6117 148.378 61.795C148.938 60.9783 149.522 60.2433 150.128 59.59C150.758 58.9367 151.33 58.4583 151.843 58.155C152.17 57.8283 152.567 57.6533 153.033 57.63C153.5 57.6067 153.943 57.7117 154.363 57.945C154.597 58.0617 154.83 58.2483 155.063 58.505C155.297 58.7617 155.518 59.0417 155.728 59.345C155.938 59.6483 156.113 59.9517 156.253 60.255C156.323 60.5117 156.358 60.745 156.358 60.955C156.382 61.1417 156.382 61.375 156.358 61.655C156.358 61.935 156.323 62.355 156.253 62.915C156.137 63.335 156.032 63.8483 155.938 64.455C155.868 65.0617 155.833 65.5867 155.833 66.03C155.787 66.4733 155.833 66.7883 155.973 66.975C156.137 67.1617 156.37 67.1733 156.673 67.01C156.953 66.87 157.222 66.8117 157.478 66.835C157.735 66.835 157.933 66.905 158.073 67.045C158.237 67.185 158.318 67.395 158.318 67.675C158.318 67.955 158.178 68.2467 157.898 68.55C157.642 68.83 157.315 69.075 156.918 69.285C156.545 69.4717 156.183 69.565 155.833 69.565C155.577 69.565 155.332 69.4133 155.098 69.11C154.865 68.7833 154.655 68.3983 154.468 67.955C154.305 67.4883 154.153 67.045 154.013 66.625L153.803 65.82L152.298 67.255C151.995 67.5817 151.692 67.885 151.388 68.165C151.108 68.4217 150.933 68.6083 150.863 68.725C150.747 68.935 150.525 69.145 150.198 69.355C149.895 69.565 149.475 69.775 148.938 69.985ZM149.043 67.92C149.44 67.6867 149.895 67.3483 150.408 66.905C150.922 66.4383 151.423 65.9367 151.913 65.4C152.403 64.84 152.812 64.3267 153.138 63.86C153.535 63.3233 153.838 62.8217 154.048 62.355C154.258 61.8883 154.41 61.445 154.503 61.025C154.41 60.7683 154.258 60.5 154.048 60.22C153.838 59.9167 153.652 59.7533 153.488 59.73C152.975 59.73 152.427 60.0567 151.843 60.71C151.283 61.34 150.735 62.0283 150.198 62.775C150.105 62.8917 149.977 63.0783 149.813 63.335C149.65 63.5917 149.487 63.8367 149.323 64.07C149.183 64.28 149.09 64.42 149.043 64.49C148.973 64.5833 148.833 64.8517 148.623 65.295C148.437 65.715 148.25 66.1467 148.063 66.59C147.877 67.01 147.783 67.29 147.783 67.43C147.783 67.57 147.795 67.7217 147.818 67.885C147.865 68.0483 147.982 68.1533 148.168 68.2C148.355 68.2467 148.647 68.1533 149.043 67.92ZM164.386 70.93C164.06 70.8367 163.791 70.7317 163.581 70.615C163.371 70.475 163.091 70.2533 162.741 69.95C162.461 69.5767 162.24 69.2267 162.076 68.9C161.936 68.5733 161.843 68.2 161.796 67.78C161.75 67.3367 161.726 66.7767 161.726 66.1C161.726 65.82 161.773 65.4 161.866 64.84C161.983 64.28 162.111 63.6967 162.251 63.09C162.415 62.46 162.555 61.9 162.671 61.41C162.811 60.92 162.893 60.605 162.916 60.465C162.986 60.1617 162.87 59.9867 162.566 59.94C162.263 59.8933 161.925 59.8817 161.551 59.905C161.201 59.905 160.968 59.87 160.851 59.8C160.758 59.7767 160.711 59.7417 160.711 59.695C160.711 59.625 160.711 59.59 160.711 59.59C160.711 59.4967 160.7 59.4383 160.676 59.415C160.676 59.3683 160.641 59.2867 160.571 59.17C160.525 59.0767 160.548 58.9483 160.641 58.785C160.758 58.5983 160.945 58.4817 161.201 58.435C161.411 58.3883 161.691 58.3533 162.041 58.33C162.415 58.2833 162.788 58.2017 163.161 58.085C163.535 57.945 163.838 57.735 164.071 57.455C164.281 56.9417 164.526 56.37 164.806 55.74C165.086 55.11 165.355 54.55 165.611 54.06C165.891 53.5467 166.078 53.2317 166.171 53.115C166.568 52.905 166.86 52.8233 167.046 52.87C167.233 52.8933 167.443 53.0917 167.676 53.465C167.793 53.6283 167.875 53.7567 167.921 53.85C167.991 53.9433 168.003 54.0833 167.956 54.27C167.91 54.4567 167.781 54.7483 167.571 55.145C167.385 55.5417 167.093 56.1133 166.696 56.86C166.58 57.0933 166.475 57.3033 166.381 57.49C166.288 57.6533 166.241 57.735 166.241 57.735C166.335 57.7583 166.475 57.77 166.661 57.77C166.848 57.77 167.081 57.7583 167.361 57.735C167.618 57.6883 167.945 57.6533 168.341 57.63C168.738 57.5833 169.053 57.5833 169.286 57.63C169.823 57.63 170.22 57.735 170.476 57.945C170.733 58.1317 170.873 58.4583 170.896 58.925C170.943 59.1817 170.885 59.3333 170.721 59.38C170.581 59.4267 170.196 59.45 169.566 59.45C169.356 59.45 169.03 59.4617 168.586 59.485C168.143 59.5083 167.676 59.5317 167.186 59.555C166.72 59.5783 166.311 59.6133 165.961 59.66C165.635 59.6833 165.471 59.7183 165.471 59.765C165.401 59.8117 165.285 60.0333 165.121 60.43C164.981 60.8267 164.83 61.2817 164.666 61.795C164.526 62.285 164.398 62.7283 164.281 63.125C164.118 63.9183 163.99 64.7117 163.896 65.505C163.826 66.2983 163.815 66.9867 163.861 67.57C163.908 68.1533 164.036 68.5617 164.246 68.795C164.456 69.005 164.865 69.0517 165.471 68.935C166.078 68.795 166.568 68.5733 166.941 68.27C167.361 67.92 167.7 67.745 167.956 67.745C168.236 67.745 168.388 67.8733 168.411 68.13C168.458 68.3633 168.33 68.7017 168.026 69.145C167.746 69.565 167.396 69.9383 166.976 70.265C166.556 70.5683 166.113 70.79 165.646 70.93C165.203 71.0467 164.783 71.0467 164.386 70.93ZM175.133 70.79C174.83 70.8133 174.585 70.79 174.398 70.72C174.211 70.6267 173.978 70.4983 173.698 70.335C173.185 69.9383 172.8 69.5417 172.543 69.145C172.31 68.725 172.205 68.3167 172.228 67.92C172.275 67.71 172.275 67.5233 172.228 67.36C172.205 67.1967 172.193 67.115 172.193 67.115C172.053 66.9983 172.006 66.9283 172.053 66.905C172.1 66.8583 172.135 66.7883 172.158 66.695C172.345 66.6483 172.368 66.52 172.228 66.31C172.158 66.1233 172.193 65.7033 172.333 65.05C172.496 64.3733 172.706 63.7433 172.963 63.16C173.08 62.9033 173.243 62.565 173.453 62.145C173.686 61.725 173.943 61.305 174.223 60.885C174.503 60.4417 174.76 60.0917 174.993 59.835C175.506 59.2517 175.961 58.82 176.358 58.54C176.778 58.2367 177.245 57.9917 177.758 57.805C178.225 57.6183 178.563 57.5133 178.773 57.49C178.983 57.4667 179.275 57.6067 179.648 57.91C180.208 58.0733 180.628 58.3067 180.908 58.61C181.211 58.89 181.445 59.3333 181.608 59.94C181.795 60.6167 181.853 61.4217 181.783 62.355C181.736 63.265 181.34 64.4433 180.593 65.89C180.15 66.8 179.706 67.4883 179.263 67.955C178.843 68.4217 178.33 68.9117 177.723 69.425C177.28 69.7983 176.871 70.09 176.498 70.3C176.125 70.51 175.67 70.6733 175.133 70.79ZM177.933 66.625C178.4 65.925 178.761 65.2833 179.018 64.7C179.298 64.0933 179.52 63.335 179.683 62.425C179.73 62.1683 179.741 61.8533 179.718 61.48C179.695 61.0833 179.636 60.7217 179.543 60.395C179.473 60.0683 179.368 59.8933 179.228 59.87C178.925 59.7533 178.586 59.7533 178.213 59.87C177.84 59.9633 177.431 60.2433 176.988 60.71C176.591 61.1767 176.23 61.7017 175.903 62.285C175.6 62.8683 175.32 63.51 175.063 64.21C174.806 64.91 174.561 65.6567 174.328 66.45C174.095 67.3367 174.106 68.0133 174.363 68.48C174.643 68.9467 175.098 69.0633 175.728 68.83C176.358 68.5733 177.093 67.8383 177.933 66.625ZM185.687 70.195C185.57 70.4283 185.395 70.4983 185.162 70.405C184.952 70.3117 184.777 70.2183 184.637 70.125C184.474 70.125 184.334 70.0783 184.217 69.985C184.1 69.8917 184.019 69.7517 183.972 69.565C183.925 69.425 183.914 69.2617 183.937 69.075C183.96 68.865 184.007 68.6317 184.077 68.375C184.17 68.095 184.264 67.7917 184.357 67.465C184.544 66.695 184.672 66.135 184.742 65.785C184.812 65.435 184.882 65.1317 184.952 64.875C185.022 64.6183 185.115 64.245 185.232 63.755C185.419 63.2883 185.57 62.8333 185.687 62.39C185.804 61.9467 185.979 61.5033 186.212 61.06C186.375 60.4533 186.574 59.8817 186.807 59.345C187.064 58.785 187.309 58.3183 187.542 57.945C187.589 57.875 187.67 57.7817 187.787 57.665C187.927 57.5483 188.044 57.49 188.137 57.49C188.324 57.3033 188.487 57.2333 188.627 57.28C188.79 57.3033 188.989 57.4083 189.222 57.595C189.502 57.8983 189.607 58.2483 189.537 58.645C189.49 59.0417 189.21 59.625 188.697 60.395C188.417 61.1183 188.16 61.7483 187.927 62.285C187.694 62.7983 187.53 63.2883 187.437 63.755C187.694 63.3817 187.974 63.0433 188.277 62.74C188.604 62.4133 188.872 62.145 189.082 61.935C189.595 61.4217 190.015 61.0483 190.342 60.815C190.692 60.5817 191.1 60.3133 191.567 60.01C191.847 59.8233 192.115 59.66 192.372 59.52C192.629 59.3567 192.909 59.24 193.212 59.17C193.539 59.1 193.889 59.1 194.262 59.17C194.495 59.1467 194.682 59.2167 194.822 59.38C194.985 59.5433 195.114 59.765 195.207 60.045C195.3 60.325 195.359 60.6517 195.382 61.025C194.845 60.9083 194.367 60.9317 193.947 61.095C193.527 61.235 193.165 61.41 192.862 61.62C192.582 61.83 192.36 61.9933 192.197 62.11C191.847 62.3433 191.404 62.6583 190.867 63.055C190.33 63.4283 189.794 63.8833 189.257 64.42C188.837 64.8867 188.475 65.2833 188.172 65.61C187.892 65.9367 187.659 66.2283 187.472 66.485C187.309 66.7417 187.18 67.01 187.087 67.29C186.854 67.8267 186.609 68.41 186.352 69.04C186.095 69.67 185.874 70.055 185.687 70.195ZM200.549 71.225C199.866 71.225 199.383 71.0833 199.099 70.8C198.833 70.5167 198.699 70.1583 198.699 69.725V69.275C198.699 68.8417 198.833 68.4833 199.099 68.2C199.383 67.9167 199.866 67.775 200.549 67.775C201.233 67.775 201.708 67.9167 201.974 68.2C202.258 68.4833 202.399 68.8417 202.399 69.275V69.725C202.399 70.1583 202.258 70.5167 201.974 70.8C201.708 71.0833 201.233 71.225 200.549 71.225ZM200.549 61.325C199.866 61.325 199.383 61.1833 199.099 60.9C198.833 60.6167 198.699 60.2583 198.699 59.825V59.375C198.699 58.9417 198.833 58.5833 199.099 58.3C199.383 58.0167 199.866 57.875 200.549 57.875C201.233 57.875 201.708 58.0167 201.974 58.3C202.258 58.5833 202.399 58.9417 202.399 59.375V59.825C202.399 60.2583 202.258 60.6167 201.974 60.9C201.708 61.1833 201.233 61.325 200.549 61.325Z" fill="black"/>
<path d="M39.0781 151.64C38.2381 151.64 37.4515 151.487 36.7181 151.18C35.9981 150.873 35.3648 150.433 34.8181 149.86C34.2848 149.287 33.8581 148.593 33.5381 147.78C33.2315 146.967 33.0781 146.047 33.0781 145.02C33.0781 144.007 33.2315 143.093 33.5381 142.28C33.8581 141.453 34.2848 140.753 34.8181 140.18C35.3648 139.607 35.9981 139.167 36.7181 138.86C37.4515 138.553 38.2381 138.4 39.0781 138.4C39.9181 138.4 40.6981 138.553 41.4181 138.86C42.1515 139.167 42.7848 139.607 43.3181 140.18C43.8648 140.753 44.2915 141.453 44.5981 142.28C44.9181 143.093 45.0781 144.007 45.0781 145.02C45.0781 146.047 44.9181 146.967 44.5981 147.78C44.2915 148.593 43.8648 149.287 43.3181 149.86C42.7848 150.433 42.1515 150.873 41.4181 151.18C40.6981 151.487 39.9181 151.64 39.0781 151.64ZM39.0781 150.54C39.7581 150.54 40.3848 150.413 40.9581 150.16C41.5448 149.907 42.0448 149.56 42.4581 149.12C42.8848 148.667 43.2181 148.14 43.4581 147.54C43.6981 146.94 43.8181 146.3 43.8181 145.62V144.42C43.8181 143.74 43.6981 143.1 43.4581 142.5C43.2181 141.9 42.8848 141.38 42.4581 140.94C42.0448 140.487 41.5448 140.133 40.9581 139.88C40.3848 139.627 39.7581 139.5 39.0781 139.5C38.3981 139.5 37.7648 139.627 37.1781 139.88C36.6048 140.133 36.1048 140.487 35.6781 140.94C35.2648 141.38 34.9381 141.9 34.6981 142.5C34.4581 143.1 34.3381 143.74 34.3381 144.42V145.62C34.3381 146.3 34.4581 146.94 34.6981 147.54C34.9381 148.14 35.2648 148.667 35.6781 149.12C36.1048 149.56 36.6048 149.907 37.1781 150.16C37.7648 150.413 38.3981 150.54 39.0781 150.54ZM39.1781 148.58C38.2048 148.58 37.4448 148.26 36.8981 147.62C36.3648 146.967 36.0981 146.1 36.0981 145.02C36.0981 143.927 36.3715 143.06 36.9181 142.42C37.4648 141.78 38.2181 141.46 39.1781 141.46C39.8181 141.46 40.3381 141.607 40.7381 141.9C41.1515 142.193 41.4715 142.58 41.6981 143.06L40.6381 143.64C40.4915 143.32 40.3048 143.067 40.0781 142.88C39.8515 142.693 39.5515 142.6 39.1781 142.6C38.6581 142.6 38.2515 142.773 37.9581 143.12C37.6781 143.453 37.5381 143.893 37.5381 144.44V145.58C37.5381 146.14 37.6781 146.593 37.9581 146.94C38.2381 147.273 38.6515 147.44 39.1981 147.44C39.5981 147.44 39.9181 147.34 40.1581 147.14C40.3981 146.94 40.6115 146.673 40.7981 146.34L41.7981 146.96C41.5715 147.427 41.2381 147.813 40.7981 148.12C40.3715 148.427 39.8315 148.58 39.1781 148.58ZM67.8025 152H58.4825V150.28L63.1425 146.08C63.8225 145.467 64.3825 144.84 64.8225 144.2C65.2625 143.547 65.4825 142.86 65.4825 142.14V141.9C65.4825 141.06 65.2625 140.413 64.8225 139.96C64.3825 139.493 63.7292 139.26 62.8625 139.26C62.0092 139.26 61.3492 139.48 60.8825 139.92C60.4292 140.347 60.0892 140.92 59.8625 141.64L58.3625 141.08C58.4958 140.667 58.6758 140.267 58.9025 139.88C59.1425 139.48 59.4425 139.127 59.8025 138.82C60.1625 138.513 60.5958 138.267 61.1025 138.08C61.6225 137.893 62.2225 137.8 62.9025 137.8C63.5958 137.8 64.2092 137.9 64.7425 138.1C65.2892 138.3 65.7425 138.58 66.1025 138.94C66.4758 139.3 66.7558 139.727 66.9425 140.22C67.1425 140.713 67.2425 141.253 67.2425 141.84C67.2425 142.373 67.1625 142.873 67.0025 143.34C66.8558 143.807 66.6425 144.253 66.3625 144.68C66.0958 145.107 65.7692 145.527 65.3825 145.94C65.0092 146.34 64.5892 146.74 64.1225 147.14L60.2225 150.54H67.8025V152ZM75.0547 152.24C74.2014 152.24 73.468 152.08 72.8547 151.76C72.2414 151.427 71.7347 150.953 71.3347 150.34C70.9347 149.727 70.6414 148.973 70.4547 148.08C70.268 147.187 70.1747 146.167 70.1747 145.02C70.1747 143.887 70.268 142.873 70.4547 141.98C70.6414 141.073 70.9347 140.313 71.3347 139.7C71.7347 139.087 72.2414 138.62 72.8547 138.3C73.468 137.967 74.2014 137.8 75.0547 137.8C75.908 137.8 76.6414 137.967 77.2547 138.3C77.868 138.62 78.3747 139.087 78.7747 139.7C79.1747 140.313 79.468 141.073 79.6547 141.98C79.8414 142.873 79.9347 143.887 79.9347 145.02C79.9347 146.167 79.8414 147.187 79.6547 148.08C79.468 148.973 79.1747 149.727 78.7747 150.34C78.3747 150.953 77.868 151.427 77.2547 151.76C76.6414 152.08 75.908 152.24 75.0547 152.24ZM75.0547 150.78C75.6147 150.78 76.0947 150.673 76.4947 150.46C76.8947 150.233 77.2147 149.92 77.4547 149.52C77.708 149.12 77.8947 148.64 78.0147 148.08C78.1347 147.507 78.1947 146.867 78.1947 146.16V143.88C78.1947 143.187 78.1347 142.553 78.0147 141.98C77.8947 141.407 77.708 140.92 77.4547 140.52C77.2147 140.12 76.8947 139.813 76.4947 139.6C76.0947 139.373 75.6147 139.26 75.0547 139.26C74.4947 139.26 74.0147 139.373 73.6147 139.6C73.2147 139.813 72.888 140.12 72.6347 140.52C72.3947 140.92 72.2147 141.407 72.0947 141.98C71.9747 142.553 71.9147 143.187 71.9147 143.88V146.16C71.9147 146.867 71.9747 147.507 72.0947 148.08C72.2147 148.64 72.3947 149.12 72.6347 149.52C72.888 149.92 73.2147 150.233 73.6147 150.46C74.0147 150.673 74.4947 150.78 75.0547 150.78ZM75.0547 146.2C74.588 146.2 74.2614 146.107 74.0747 145.92C73.9014 145.733 73.8147 145.507 73.8147 145.24V144.8C73.8147 144.533 73.9014 144.307 74.0747 144.12C74.2614 143.933 74.588 143.84 75.0547 143.84C75.5214 143.84 75.8414 143.933 76.0147 144.12C76.2014 144.307 76.2947 144.533 76.2947 144.8V145.24C76.2947 145.507 76.2014 145.733 76.0147 145.92C75.8414 146.107 75.5214 146.2 75.0547 146.2ZM91.7869 152H82.4669V150.28L87.1269 146.08C87.8069 145.467 88.3669 144.84 88.8069 144.2C89.2469 143.547 89.4669 142.86 89.4669 142.14V141.9C89.4669 141.06 89.2469 140.413 88.8069 139.96C88.3669 139.493 87.7135 139.26 86.8469 139.26C85.9935 139.26 85.3335 139.48 84.8669 139.92C84.4135 140.347 84.0735 140.92 83.8469 141.64L82.3469 141.08C82.4802 140.667 82.6602 140.267 82.8869 139.88C83.1269 139.48 83.4269 139.127 83.7869 138.82C84.1469 138.513 84.5802 138.267 85.0869 138.08C85.6069 137.893 86.2069 137.8 86.8869 137.8C87.5802 137.8 88.1935 137.9 88.7269 138.1C89.2735 138.3 89.7269 138.58 90.0869 138.94C90.4602 139.3 90.7402 139.727 90.9269 140.22C91.1269 140.713 91.2269 141.253 91.2269 141.84C91.2269 142.373 91.1469 142.873 90.9869 143.34C90.8402 143.807 90.6269 144.253 90.3469 144.68C90.0802 145.107 89.7535 145.527 89.3669 145.94C88.9935 146.34 88.5735 146.74 88.1069 147.14L84.2069 150.54H91.7869V152ZM98.4391 143.96C99.4124 143.96 100.139 143.747 100.619 143.32C101.112 142.88 101.359 142.32 101.359 141.64V141.5C101.359 140.753 101.119 140.193 100.639 139.82C100.172 139.447 99.5591 139.26 98.7991 139.26C98.0524 139.26 97.4457 139.427 96.9791 139.76C96.5257 140.08 96.1524 140.507 95.8591 141.04L94.5991 140.08C94.7724 139.8 94.9857 139.527 95.2391 139.26C95.4924 138.98 95.7857 138.733 96.1191 138.52C96.4657 138.307 96.8591 138.133 97.2991 138C97.7524 137.867 98.2657 137.8 98.8391 137.8C99.4391 137.8 99.9991 137.88 100.519 138.04C101.039 138.187 101.492 138.413 101.879 138.72C102.266 139.013 102.566 139.38 102.779 139.82C103.006 140.26 103.119 140.76 103.119 141.32C103.119 141.773 103.046 142.18 102.899 142.54C102.766 142.9 102.572 143.213 102.319 143.48C102.079 143.747 101.792 143.973 101.459 144.16C101.126 144.347 100.772 144.487 100.399 144.58V144.66C100.786 144.74 101.159 144.873 101.519 145.06C101.879 145.233 102.199 145.467 102.479 145.76C102.759 146.04 102.979 146.387 103.139 146.8C103.312 147.2 103.399 147.66 103.399 148.18C103.399 148.78 103.279 149.333 103.039 149.84C102.812 150.333 102.486 150.76 102.059 151.12C101.646 151.467 101.139 151.74 100.539 151.94C99.9524 152.14 99.2991 152.24 98.5791 152.24C97.9657 152.24 97.4191 152.173 96.9391 152.04C96.4724 151.907 96.0524 151.727 95.6791 151.5C95.3191 151.273 94.9991 151.02 94.7191 150.74C94.4524 150.46 94.2124 150.167 93.9991 149.86L95.2591 148.9C95.4457 149.18 95.6391 149.433 95.8391 149.66C96.0391 149.887 96.2657 150.087 96.5191 150.26C96.7857 150.42 97.0857 150.547 97.4191 150.64C97.7524 150.733 98.1391 150.78 98.5791 150.78C99.5657 150.78 100.319 150.553 100.839 150.1C101.372 149.647 101.639 149 101.639 148.16V148C101.639 147.173 101.379 146.533 100.859 146.08C100.352 145.627 99.5857 145.4 98.5591 145.4H96.8991V143.96H98.4391ZM108.131 146.76V145.08H113.931V146.76H108.131ZM126.123 145V140.58H125.963L123.023 147.76L120.083 140.58H119.923V145V152H118.383V138.04H120.543L123.003 144.2H123.123L125.583 138.04H127.663V152H126.123V145ZM135.016 152.24C134.296 152.24 133.642 152.113 133.056 151.86C132.482 151.607 131.989 151.247 131.576 150.78C131.176 150.3 130.869 149.733 130.656 149.08C130.442 148.413 130.336 147.667 130.336 146.84C130.336 146.027 130.442 145.287 130.656 144.62C130.869 143.953 131.176 143.387 131.576 142.92C131.989 142.44 132.482 142.073 133.056 141.82C133.642 141.567 134.296 141.44 135.016 141.44C135.736 141.44 136.382 141.567 136.956 141.82C137.542 142.073 138.036 142.44 138.436 142.92C138.849 143.387 139.162 143.953 139.376 144.62C139.589 145.287 139.696 146.027 139.696 146.84C139.696 147.667 139.589 148.413 139.376 149.08C139.162 149.733 138.849 150.3 138.436 150.78C138.036 151.247 137.542 151.607 136.956 151.86C136.382 152.113 135.736 152.24 135.016 152.24ZM135.016 150.86C135.909 150.86 136.629 150.593 137.176 150.06C137.722 149.527 137.996 148.7 137.996 147.58V146.1C137.996 144.98 137.722 144.153 137.176 143.62C136.629 143.087 135.909 142.82 135.016 142.82C134.122 142.82 133.402 143.087 132.856 143.62C132.309 144.153 132.036 144.98 132.036 146.1V147.58C132.036 148.7 132.309 149.527 132.856 150.06C133.402 150.593 134.122 150.86 135.016 150.86ZM142.968 137.2H144.568V143.36H144.648C144.754 143.107 144.888 142.867 145.048 142.64C145.208 142.4 145.401 142.193 145.628 142.02C145.868 141.847 146.148 141.707 146.468 141.6C146.788 141.493 147.161 141.44 147.588 141.44C148.668 141.44 149.534 141.787 150.188 142.48C150.841 143.16 151.168 144.127 151.168 145.38V152H149.568V145.66C149.568 144.713 149.361 144.013 148.948 143.56C148.534 143.093 147.928 142.86 147.128 142.86C146.808 142.86 146.494 142.9 146.188 142.98C145.881 143.06 145.608 143.18 145.368 143.34C145.128 143.5 144.934 143.707 144.788 143.96C144.641 144.213 144.568 144.507 144.568 144.84V152H142.968V137.2ZM162.9 152C162.273 152 161.827 151.84 161.56 151.52C161.293 151.2 161.127 150.8 161.06 150.32H160.96C160.733 150.92 160.367 151.393 159.86 151.74C159.367 152.073 158.7 152.24 157.86 152.24C156.78 152.24 155.92 151.96 155.28 151.4C154.64 150.84 154.32 150.073 154.32 149.1C154.32 148.14 154.667 147.4 155.36 146.88C156.067 146.36 157.2 146.1 158.76 146.1H160.96V145.08C160.96 144.32 160.747 143.753 160.32 143.38C159.893 142.993 159.287 142.8 158.5 142.8C157.807 142.8 157.24 142.94 156.8 143.22C156.36 143.487 156.007 143.853 155.74 144.32L154.66 143.52C154.793 143.253 154.973 142.993 155.2 142.74C155.427 142.487 155.707 142.267 156.04 142.08C156.373 141.88 156.753 141.727 157.18 141.62C157.607 141.5 158.08 141.44 158.6 141.44C159.813 141.44 160.773 141.747 161.48 142.36C162.2 142.973 162.56 143.827 162.56 144.92V150.6H164V152H162.9ZM158.14 150.9C158.553 150.9 158.927 150.853 159.26 150.76C159.607 150.653 159.907 150.52 160.16 150.36C160.413 150.187 160.607 149.987 160.74 149.76C160.887 149.52 160.96 149.267 160.96 149V147.3H158.76C157.8 147.3 157.1 147.433 156.66 147.7C156.22 147.967 156 148.353 156 148.86V149.28C156 149.813 156.187 150.22 156.56 150.5C156.947 150.767 157.473 150.9 158.14 150.9ZM166.072 152V141.68H167.552V142.88H167.632C167.792 142.48 168.019 142.14 168.312 141.86C168.606 141.58 169.039 141.44 169.612 141.44C170.212 141.44 170.659 141.593 170.952 141.9C171.246 142.193 171.426 142.58 171.492 143.06H171.552C171.739 142.593 172.006 142.207 172.352 141.9C172.699 141.593 173.179 141.44 173.792 141.44C174.632 141.44 175.192 141.733 175.472 142.32C175.766 142.907 175.912 143.747 175.912 144.84V152H174.432V145.1C174.432 144.22 174.339 143.613 174.152 143.28C173.979 142.933 173.652 142.76 173.172 142.76C172.746 142.76 172.399 142.9 172.132 143.18C171.866 143.447 171.732 143.86 171.732 144.42V152H170.252V145.1C170.252 144.22 170.159 143.613 169.972 143.28C169.799 142.933 169.479 142.76 169.012 142.76C168.586 142.76 168.232 142.9 167.952 143.18C167.686 143.447 167.552 143.86 167.552 144.42V152H166.072ZM178.064 152V141.68H179.544V142.88H179.624C179.784 142.48 180.011 142.14 180.304 141.86C180.598 141.58 181.031 141.44 181.604 141.44C182.204 141.44 182.651 141.593 182.944 141.9C183.238 142.193 183.418 142.58 183.484 143.06H183.544C183.731 142.593 183.998 142.207 184.344 141.9C184.691 141.593 185.171 141.44 185.784 141.44C186.624 141.44 187.184 141.733 187.464 142.32C187.758 142.907 187.904 143.747 187.904 144.84V152H186.424V145.1C186.424 144.22 186.331 143.613 186.144 143.28C185.971 142.933 185.644 142.76 185.164 142.76C184.738 142.76 184.391 142.9 184.124 143.18C183.858 143.447 183.724 143.86 183.724 144.42V152H182.244V145.1C182.244 144.22 182.151 143.613 181.964 143.28C181.791 142.933 181.471 142.76 181.004 142.76C180.578 142.76 180.224 142.9 179.944 143.18C179.678 143.447 179.544 143.86 179.544 144.42V152H178.064ZM198.877 152C198.25 152 197.803 151.84 197.537 151.52C197.27 151.2 197.103 150.8 197.037 150.32H196.937C196.71 150.92 196.343 151.393 195.837 151.74C195.343 152.073 194.677 152.24 193.837 152.24C192.757 152.24 191.897 151.96 191.257 151.4C190.617 150.84 190.297 150.073 190.297 149.1C190.297 148.14 190.643 147.4 191.337 146.88C192.043 146.36 193.177 146.1 194.737 146.1H196.937V145.08C196.937 144.32 196.723 143.753 196.297 143.38C195.87 142.993 195.263 142.8 194.477 142.8C193.783 142.8 193.217 142.94 192.777 143.22C192.337 143.487 191.983 143.853 191.717 144.32L190.637 143.52C190.77 143.253 190.95 142.993 191.177 142.74C191.403 142.487 191.683 142.267 192.017 142.08C192.35 141.88 192.73 141.727 193.157 141.62C193.583 141.5 194.057 141.44 194.577 141.44C195.79 141.44 196.75 141.747 197.457 142.36C198.177 142.973 198.537 143.827 198.537 144.92V150.6H199.977V152H198.877ZM194.117 150.9C194.53 150.9 194.903 150.853 195.237 150.76C195.583 150.653 195.883 150.52 196.137 150.36C196.39 150.187 196.583 149.987 196.717 149.76C196.863 149.52 196.937 149.267 196.937 149V147.3H194.737C193.777 147.3 193.077 147.433 192.637 147.7C192.197 147.967 191.977 148.353 191.977 148.86V149.28C191.977 149.813 192.163 150.22 192.537 150.5C192.923 150.767 193.45 150.9 194.117 150.9ZM209.469 150.32H209.389C208.722 151.6 207.662 152.24 206.209 152.24C204.942 152.24 203.949 151.767 203.229 150.82C202.522 149.873 202.169 148.547 202.169 146.84C202.169 145.133 202.522 143.807 203.229 142.86C203.949 141.913 204.942 141.44 206.209 141.44C207.662 141.44 208.722 142.08 209.389 143.36H209.469V137.2H211.069V152H209.469V150.32ZM206.829 150.82C207.189 150.82 207.529 150.773 207.849 150.68C208.169 150.587 208.449 150.453 208.689 150.28C208.929 150.093 209.115 149.873 209.249 149.62C209.395 149.353 209.469 149.047 209.469 148.7V144.98C209.469 144.633 209.395 144.333 209.249 144.08C209.115 143.813 208.929 143.593 208.689 143.42C208.449 143.233 208.169 143.093 207.849 143C207.529 142.907 207.189 142.86 206.829 142.86C205.895 142.86 205.169 143.147 204.649 143.72C204.142 144.28 203.889 145.027 203.889 145.96V147.72C203.889 148.653 204.142 149.407 204.649 149.98C205.169 150.54 205.895 150.82 206.829 150.82ZM222.581 152L221.401 148.02H216.501L215.321 152H213.581L217.861 138.04H220.081L224.361 152H222.581ZM219.041 139.82H218.861L216.901 146.56H221.001L219.041 139.82ZM226.653 152V150.46L233.313 143.04H226.873V141.68H235.053V143.22L228.393 150.64H235.253V152H226.653ZM243.125 152.24C242.379 152.24 241.705 152.113 241.105 151.86C240.519 151.607 240.012 151.247 239.585 150.78C239.172 150.3 238.852 149.733 238.625 149.08C238.399 148.413 238.285 147.673 238.285 146.86C238.285 146.033 238.399 145.287 238.625 144.62C238.865 143.953 239.192 143.387 239.605 142.92C240.019 142.44 240.512 142.073 241.085 141.82C241.672 141.567 242.319 141.44 243.025 141.44C243.719 141.44 244.345 141.567 244.905 141.82C245.479 142.073 245.965 142.427 246.365 142.88C246.765 143.32 247.072 143.847 247.285 144.46C247.499 145.073 247.605 145.747 247.605 146.48V147.24H239.965V147.72C239.965 148.173 240.039 148.593 240.185 148.98C240.332 149.367 240.539 149.7 240.805 149.98C241.085 150.26 241.419 150.48 241.805 150.64C242.205 150.787 242.645 150.86 243.125 150.86C243.819 150.86 244.419 150.7 244.925 150.38C245.432 150.06 245.819 149.62 246.085 149.06L247.265 149.86C246.959 150.553 246.445 151.127 245.725 151.58C245.019 152.02 244.152 152.24 243.125 152.24ZM243.025 142.76C242.585 142.76 242.179 142.84 241.805 143C241.432 143.16 241.105 143.38 240.825 143.66C240.559 143.94 240.345 144.273 240.185 144.66C240.039 145.033 239.965 145.447 239.965 145.9V146.04H245.885V145.82C245.885 145.367 245.812 144.953 245.665 144.58C245.532 144.207 245.339 143.887 245.085 143.62C244.845 143.34 244.545 143.127 244.185 142.98C243.839 142.833 243.452 142.76 243.025 142.76ZM255.118 152.24C254.371 152.24 253.698 152.113 253.098 151.86C252.511 151.607 252.004 151.247 251.577 150.78C251.164 150.3 250.844 149.733 250.618 149.08C250.391 148.413 250.278 147.673 250.278 146.86C250.278 146.033 250.391 145.287 250.618 144.62C250.858 143.953 251.184 143.387 251.598 142.92C252.011 142.44 252.504 142.073 253.078 141.82C253.664 141.567 254.311 141.44 255.018 141.44C255.711 141.44 256.338 141.567 256.898 141.82C257.471 142.073 257.958 142.427 258.358 142.88C258.758 143.32 259.064 143.847 259.278 144.46C259.491 145.073 259.598 145.747 259.598 146.48V147.24H251.958V147.72C251.958 148.173 252.031 148.593 252.178 148.98C252.324 149.367 252.531 149.7 252.798 149.98C253.078 150.26 253.411 150.48 253.798 150.64C254.198 150.787 254.638 150.86 255.118 150.86C255.811 150.86 256.411 150.7 256.918 150.38C257.424 150.06 257.811 149.62 258.078 149.06L259.258 149.86C258.951 150.553 258.438 151.127 257.718 151.58C257.011 152.02 256.144 152.24 255.118 152.24ZM255.018 142.76C254.578 142.76 254.171 142.84 253.798 143C253.424 143.16 253.098 143.38 252.818 143.66C252.551 143.94 252.338 144.273 252.178 144.66C252.031 145.033 251.958 145.447 251.958 145.9V146.04H257.878V145.82C257.878 145.367 257.804 144.953 257.658 144.58C257.524 144.207 257.331 143.887 257.078 143.62C256.838 143.34 256.538 143.127 256.178 142.98C255.831 142.833 255.444 142.76 255.018 142.76ZM262.01 152V141.68H263.49V142.88H263.57C263.73 142.48 263.956 142.14 264.25 141.86C264.543 141.58 264.976 141.44 265.55 141.44C266.15 141.44 266.596 141.593 266.89 141.9C267.183 142.193 267.363 142.58 267.43 143.06H267.49C267.676 142.593 267.943 142.207 268.29 141.9C268.636 141.593 269.116 141.44 269.73 141.44C270.57 141.44 271.13 141.733 271.41 142.32C271.703 142.907 271.85 143.747 271.85 144.84V152H270.37V145.1C270.37 144.22 270.276 143.613 270.09 143.28C269.916 142.933 269.59 142.76 269.11 142.76C268.683 142.76 268.336 142.9 268.07 143.18C267.803 143.447 267.67 143.86 267.67 144.42V152H266.19V145.1C266.19 144.22 266.096 143.613 265.91 143.28C265.736 142.933 265.416 142.76 264.95 142.76C264.523 142.76 264.17 142.9 263.89 143.18C263.623 143.447 263.49 143.86 263.49 144.42V152H262.01ZM48.6942 178L47.5142 174.02H42.6142L41.4342 178H39.6942L43.9742 164.04H46.1942L50.4742 178H48.6942ZM45.1542 165.82H44.9742L43.0142 172.56H47.1142L45.1542 165.82ZM52.6664 176.64H56.2664V164.56H52.6664V163.2H57.8664V176.64H61.4664V178H52.6664V176.64ZM64.6586 176.64H68.2586V164.56H64.6586V163.2H69.8586V176.64H73.4586V178H64.6586V176.64ZM88.583 176.64H91.603V169.04H88.583V167.68H93.203V170.28H93.303C93.5163 169.467 93.9163 168.833 94.503 168.38C95.103 167.913 95.863 167.68 96.783 167.68H98.223V169.28H96.283C95.363 169.28 94.6163 169.547 94.043 170.08C93.483 170.613 93.203 171.313 93.203 172.18V176.64H97.203V178H88.583V176.64ZM105.675 165.4C105.208 165.4 104.882 165.307 104.695 165.12C104.508 164.92 104.415 164.673 104.415 164.38V164.06C104.415 163.767 104.508 163.527 104.695 163.34C104.882 163.14 105.208 163.04 105.675 163.04C106.142 163.04 106.468 163.14 106.655 163.34C106.842 163.527 106.935 163.767 106.935 164.06V164.38C106.935 164.673 106.842 164.92 106.655 165.12C106.468 165.307 106.142 165.4 105.675 165.4ZM101.155 176.64H104.875V169.04H101.155V167.68H106.475V176.64H109.955V178H101.155V176.64ZM122.247 179.18C122.247 180.22 121.814 180.987 120.947 181.48C120.081 181.987 118.781 182.24 117.047 182.24C115.381 182.24 114.181 182.02 113.447 181.58C112.727 181.14 112.367 180.507 112.367 179.68C112.367 179.12 112.514 178.687 112.807 178.38C113.101 178.073 113.514 177.847 114.047 177.7V177.46C113.754 177.313 113.527 177.127 113.367 176.9C113.207 176.673 113.127 176.387 113.127 176.04C113.127 175.507 113.301 175.107 113.647 174.84C114.007 174.573 114.454 174.373 114.987 174.24V174.16C114.347 173.88 113.847 173.467 113.487 172.92C113.141 172.373 112.967 171.733 112.967 171C112.967 170.48 113.061 170 113.247 169.56C113.434 169.12 113.701 168.747 114.047 168.44C114.407 168.12 114.834 167.873 115.327 167.7C115.821 167.527 116.367 167.44 116.967 167.44C117.741 167.44 118.421 167.58 119.007 167.86V167.68C119.007 167.28 119.101 166.947 119.287 166.68C119.474 166.413 119.794 166.28 120.247 166.28H122.147V167.68H119.827V168.38C120.201 168.7 120.487 169.08 120.687 169.52C120.887 169.96 120.987 170.453 120.987 171C120.987 171.52 120.887 172 120.687 172.44C120.501 172.88 120.234 173.26 119.887 173.58C119.541 173.887 119.114 174.127 118.607 174.3C118.114 174.473 117.567 174.56 116.967 174.56C116.794 174.56 116.627 174.553 116.467 174.54C116.307 174.527 116.147 174.507 115.987 174.48C115.827 174.507 115.661 174.553 115.487 174.62C115.314 174.673 115.154 174.753 115.007 174.86C114.861 174.953 114.741 175.067 114.647 175.2C114.554 175.333 114.507 175.487 114.507 175.66C114.507 175.967 114.661 176.173 114.967 176.28C115.274 176.373 115.674 176.42 116.167 176.42H118.447C119.781 176.42 120.747 176.673 121.347 177.18C121.947 177.673 122.247 178.34 122.247 179.18ZM120.747 179.26C120.747 178.847 120.581 178.513 120.247 178.26C119.914 178.02 119.334 177.9 118.507 177.9H114.927C114.234 178.18 113.887 178.647 113.887 179.3C113.887 179.753 114.067 180.14 114.427 180.46C114.787 180.793 115.387 180.96 116.227 180.96H117.787C118.721 180.96 119.447 180.813 119.967 180.52C120.487 180.24 120.747 179.82 120.747 179.26ZM116.967 173.32C117.767 173.32 118.354 173.133 118.727 172.76C119.114 172.387 119.307 171.893 119.307 171.28V170.7C119.307 170.087 119.114 169.6 118.727 169.24C118.354 168.867 117.767 168.68 116.967 168.68C116.167 168.68 115.581 168.867 115.207 169.24C114.834 169.6 114.647 170.087 114.647 170.7V171.28C114.647 171.893 114.834 172.387 115.207 172.76C115.581 173.133 116.167 173.32 116.967 173.32ZM124.98 163.2H126.58V169.36H126.66C126.766 169.107 126.9 168.867 127.06 168.64C127.22 168.4 127.413 168.193 127.64 168.02C127.88 167.847 128.16 167.707 128.48 167.6C128.8 167.493 129.173 167.44 129.6 167.44C130.68 167.44 131.546 167.787 132.2 168.48C132.853 169.16 133.18 170.127 133.18 171.38V178H131.58V171.66C131.58 170.713 131.373 170.013 130.96 169.56C130.546 169.093 129.94 168.86 129.14 168.86C128.82 168.86 128.506 168.9 128.2 168.98C127.893 169.06 127.62 169.18 127.38 169.34C127.14 169.5 126.946 169.707 126.8 169.96C126.653 170.213 126.58 170.507 126.58 170.84V178H124.98V163.2ZM141.512 178C140.725 178 140.145 177.78 139.772 177.34C139.412 176.9 139.232 176.333 139.232 175.64V169.04H135.792V167.68H138.352C138.698 167.68 138.938 167.613 139.072 167.48C139.218 167.333 139.292 167.087 139.292 166.74V164.04H140.832V167.68H145.532V169.04H140.832V176.64H145.532V178H141.512ZM153.124 178.24C152.044 178.24 151.111 178.06 150.324 177.7C149.551 177.327 148.891 176.833 148.344 176.22L149.424 175.28C149.917 175.8 150.457 176.2 151.044 176.48C151.631 176.76 152.337 176.9 153.164 176.9C153.964 176.9 154.617 176.76 155.124 176.48C155.644 176.187 155.904 175.733 155.904 175.12C155.904 174.853 155.851 174.633 155.744 174.46C155.651 174.273 155.517 174.127 155.344 174.02C155.171 173.913 154.977 173.833 154.764 173.78C154.551 173.713 154.324 173.66 154.084 173.62L152.464 173.38C152.104 173.327 151.711 173.253 151.284 173.16C150.871 173.067 150.491 172.92 150.144 172.72C149.797 172.507 149.504 172.227 149.264 171.88C149.037 171.533 148.924 171.08 148.924 170.52C148.924 170 149.024 169.553 149.224 169.18C149.437 168.793 149.731 168.473 150.104 168.22C150.477 167.953 150.917 167.76 151.424 167.64C151.931 167.507 152.484 167.44 153.084 167.44C154.017 167.44 154.824 167.587 155.504 167.88C156.197 168.173 156.791 168.58 157.284 169.1L156.244 170.08C156.124 169.933 155.971 169.787 155.784 169.64C155.611 169.48 155.391 169.34 155.124 169.22C154.871 169.087 154.571 168.98 154.224 168.9C153.877 168.82 153.477 168.78 153.024 168.78C152.211 168.78 151.584 168.92 151.144 169.2C150.717 169.48 150.504 169.887 150.504 170.42C150.504 170.687 150.551 170.913 150.644 171.1C150.751 171.273 150.891 171.413 151.064 171.52C151.237 171.627 151.431 171.713 151.644 171.78C151.871 171.833 152.097 171.88 152.324 171.92L153.944 172.16C154.317 172.213 154.711 172.287 155.124 172.38C155.537 172.473 155.917 172.627 156.264 172.84C156.611 173.04 156.897 173.313 157.124 173.66C157.364 174.007 157.484 174.46 157.484 175.02C157.484 176.047 157.084 176.84 156.284 177.4C155.497 177.96 154.444 178.24 153.124 178.24ZM172.528 176.64H175.548V169.04H172.528V167.68H177.148V170.28H177.248C177.462 169.467 177.862 168.833 178.448 168.38C179.048 167.913 179.808 167.68 180.728 167.68H182.168V169.28H180.228C179.308 169.28 178.562 169.547 177.988 170.08C177.428 170.613 177.148 171.313 177.148 172.18V176.64H181.148V178H172.528V176.64ZM189.16 178.24C188.414 178.24 187.74 178.113 187.14 177.86C186.554 177.607 186.047 177.247 185.62 176.78C185.207 176.3 184.887 175.733 184.66 175.08C184.434 174.413 184.32 173.673 184.32 172.86C184.32 172.033 184.434 171.287 184.66 170.62C184.9 169.953 185.227 169.387 185.64 168.92C186.054 168.44 186.547 168.073 187.12 167.82C187.707 167.567 188.354 167.44 189.06 167.44C189.754 167.44 190.38 167.567 190.94 167.82C191.514 168.073 192 168.427 192.4 168.88C192.8 169.32 193.107 169.847 193.32 170.46C193.534 171.073 193.64 171.747 193.64 172.48V173.24H186V173.72C186 174.173 186.074 174.593 186.22 174.98C186.367 175.367 186.574 175.7 186.84 175.98C187.12 176.26 187.454 176.48 187.84 176.64C188.24 176.787 188.68 176.86 189.16 176.86C189.854 176.86 190.454 176.7 190.96 176.38C191.467 176.06 191.854 175.62 192.12 175.06L193.3 175.86C192.994 176.553 192.48 177.127 191.76 177.58C191.054 178.02 190.187 178.24 189.16 178.24ZM189.06 168.76C188.62 168.76 188.214 168.84 187.84 169C187.467 169.16 187.14 169.38 186.86 169.66C186.594 169.94 186.38 170.273 186.22 170.66C186.074 171.033 186 171.447 186 171.9V172.04H191.92V171.82C191.92 171.367 191.847 170.953 191.7 170.58C191.567 170.207 191.374 169.887 191.12 169.62C190.88 169.34 190.58 169.127 190.22 168.98C189.874 168.833 189.487 168.76 189.06 168.76ZM201.093 178.24C200.013 178.24 199.079 178.06 198.293 177.7C197.519 177.327 196.859 176.833 196.313 176.22L197.393 175.28C197.886 175.8 198.426 176.2 199.013 176.48C199.599 176.76 200.306 176.9 201.133 176.9C201.933 176.9 202.586 176.76 203.093 176.48C203.613 176.187 203.873 175.733 203.873 175.12C203.873 174.853 203.819 174.633 203.713 174.46C203.619 174.273 203.486 174.127 203.313 174.02C203.139 173.913 202.946 173.833 202.733 173.78C202.519 173.713 202.293 173.66 202.053 173.62L200.433 173.38C200.073 173.327 199.679 173.253 199.253 173.16C198.839 173.067 198.459 172.92 198.113 172.72C197.766 172.507 197.473 172.227 197.233 171.88C197.006 171.533 196.893 171.08 196.893 170.52C196.893 170 196.993 169.553 197.193 169.18C197.406 168.793 197.699 168.473 198.073 168.22C198.446 167.953 198.886 167.76 199.393 167.64C199.899 167.507 200.453 167.44 201.053 167.44C201.986 167.44 202.793 167.587 203.473 167.88C204.166 168.173 204.759 168.58 205.253 169.1L204.213 170.08C204.093 169.933 203.939 169.787 203.753 169.64C203.579 169.48 203.359 169.34 203.093 169.22C202.839 169.087 202.539 168.98 202.193 168.9C201.846 168.82 201.446 168.78 200.993 168.78C200.179 168.78 199.553 168.92 199.113 169.2C198.686 169.48 198.473 169.887 198.473 170.42C198.473 170.687 198.519 170.913 198.613 171.1C198.719 171.273 198.859 171.413 199.033 171.52C199.206 171.627 199.399 171.713 199.613 171.78C199.839 171.833 200.066 171.88 200.293 171.92L201.913 172.16C202.286 172.213 202.679 172.287 203.093 172.38C203.506 172.473 203.886 172.627 204.233 172.84C204.579 173.04 204.866 173.313 205.093 173.66C205.333 174.007 205.453 174.46 205.453 175.02C205.453 176.047 205.053 176.84 204.253 177.4C203.466 177.96 202.413 178.24 201.093 178.24ZM213.145 178.24C212.398 178.24 211.725 178.113 211.125 177.86C210.538 177.607 210.032 177.247 209.605 176.78C209.192 176.3 208.872 175.733 208.645 175.08C208.418 174.413 208.305 173.673 208.305 172.86C208.305 172.033 208.418 171.287 208.645 170.62C208.885 169.953 209.212 169.387 209.625 168.92C210.038 168.44 210.532 168.073 211.105 167.82C211.692 167.567 212.338 167.44 213.045 167.44C213.738 167.44 214.365 167.567 214.925 167.82C215.498 168.073 215.985 168.427 216.385 168.88C216.785 169.32 217.092 169.847 217.305 170.46C217.518 171.073 217.625 171.747 217.625 172.48V173.24H209.985V173.72C209.985 174.173 210.058 174.593 210.205 174.98C210.352 175.367 210.558 175.7 210.825 175.98C211.105 176.26 211.438 176.48 211.825 176.64C212.225 176.787 212.665 176.86 213.145 176.86C213.838 176.86 214.438 176.7 214.945 176.38C215.452 176.06 215.838 175.62 216.105 175.06L217.285 175.86C216.978 176.553 216.465 177.127 215.745 177.58C215.038 178.02 214.172 178.24 213.145 178.24ZM213.045 168.76C212.605 168.76 212.198 168.84 211.825 169C211.452 169.16 211.125 169.38 210.845 169.66C210.578 169.94 210.365 170.273 210.205 170.66C210.058 171.033 209.985 171.447 209.985 171.9V172.04H215.905V171.82C215.905 171.367 215.832 170.953 215.685 170.58C215.552 170.207 215.358 169.887 215.105 169.62C214.865 169.34 214.565 169.127 214.205 168.98C213.858 168.833 213.472 168.76 213.045 168.76ZM220.497 176.64H223.517V169.04H220.497V167.68H225.117V170.28H225.217C225.43 169.467 225.83 168.833 226.417 168.38C227.017 167.913 227.777 167.68 228.697 167.68H230.137V169.28H228.197C227.277 169.28 226.53 169.547 225.957 170.08C225.397 170.613 225.117 171.313 225.117 172.18V176.64H229.117V178H220.497V176.64ZM235.929 178L232.229 167.68H233.849L235.329 172L236.929 176.66H237.009L238.609 172L240.089 167.68H241.669L237.969 178H235.929ZM249.121 178.24C248.375 178.24 247.701 178.113 247.101 177.86C246.515 177.607 246.008 177.247 245.581 176.78C245.168 176.3 244.848 175.733 244.621 175.08C244.395 174.413 244.281 173.673 244.281 172.86C244.281 172.033 244.395 171.287 244.621 170.62C244.861 169.953 245.188 169.387 245.601 168.92C246.015 168.44 246.508 168.073 247.081 167.82C247.668 167.567 248.315 167.44 249.021 167.44C249.715 167.44 250.341 167.567 250.901 167.82C251.475 168.073 251.961 168.427 252.361 168.88C252.761 169.32 253.068 169.847 253.281 170.46C253.495 171.073 253.601 171.747 253.601 172.48V173.24H245.961V173.72C245.961 174.173 246.035 174.593 246.181 174.98C246.328 175.367 246.535 175.7 246.801 175.98C247.081 176.26 247.415 176.48 247.801 176.64C248.201 176.787 248.641 176.86 249.121 176.86C249.815 176.86 250.415 176.7 250.921 176.38C251.428 176.06 251.815 175.62 252.081 175.06L253.261 175.86C252.955 176.553 252.441 177.127 251.721 177.58C251.015 178.02 250.148 178.24 249.121 178.24ZM249.021 168.76C248.581 168.76 248.175 168.84 247.801 169C247.428 169.16 247.101 169.38 246.821 169.66C246.555 169.94 246.341 170.273 246.181 170.66C246.035 171.033 245.961 171.447 245.961 171.9V172.04H251.881V171.82C251.881 171.367 251.808 170.953 251.661 170.58C251.528 170.207 251.335 169.887 251.081 169.62C250.841 169.34 250.541 169.127 250.181 168.98C249.835 168.833 249.448 168.76 249.021 168.76ZM263.434 176.32H263.354C262.687 177.6 261.627 178.24 260.174 178.24C258.907 178.24 257.914 177.767 257.194 176.82C256.487 175.873 256.134 174.547 256.134 172.84C256.134 171.133 256.487 169.807 257.194 168.86C257.914 167.913 258.907 167.44 260.174 167.44C261.627 167.44 262.687 168.08 263.354 169.36H263.434V163.2H265.034V178H263.434V176.32ZM260.794 176.82C261.154 176.82 261.494 176.773 261.814 176.68C262.134 176.587 262.414 176.453 262.654 176.28C262.894 176.093 263.08 175.873 263.214 175.62C263.36 175.353 263.434 175.047 263.434 174.7V170.98C263.434 170.633 263.36 170.333 263.214 170.08C263.08 169.813 262.894 169.593 262.654 169.42C262.414 169.233 262.134 169.093 261.814 169C261.494 168.907 261.154 168.86 260.794 168.86C259.86 168.86 259.134 169.147 258.614 169.72C258.107 170.28 257.854 171.027 257.854 171.96V173.72C257.854 174.653 258.107 175.407 258.614 175.98C259.134 176.54 259.86 176.82 260.794 176.82Z" fill="black" fill-opacity="0.7"/>
</g>
<defs>
<filter id="filter0_d_26_8" x="0" y="0" width="341" height="217.5" filterUnits="userSpaceOnUse" color-interpolation-filters="sRGB">
<feFlood flood-opacity="0" result="BackgroundImageFix"/>
<feColorMatrix in="SourceAlpha" type="matrix" values="0 0 0 0 0 0 0 0 0 0 0 0 0 0 0 0 0 0 127 0" result="hardAlpha"/>
<feMorphology radius="2" operator="erode" in="SourceAlpha" result="effect1_dropShadow_26_8"/>
<feOffset dx="9" dy="13"/>
<feGaussianBlur stdDeviation="5"/>
<feComposite in2="hardAlpha" operator="out"/>
<feColorMatrix type="matrix" values="0 0 0 0 0 0 0 0 0 0 0 0 0 0 0 0 0 0 0.25 0"/>
<feBlend mode="normal" in2="BackgroundImageFix" result="effect1_dropShadow_26_8"/>
<feBlend mode="normal" in="SourceGraphic" in2="effect1_dropShadow_26_8" result="shape"/>
</filter>
</defs>
</svg>
